<?xml version="1.0" encoding="utf-8"?>
<!-- Generator: Adobe Illustrator 27.0.0, SVG Export Plug-In . SVG Version: 6.00 Build 0)  -->
<svg version="1.1" id="Layer_1" xmlns="http://www.w3.org/2000/svg" xmlns:xlink="http://www.w3.org/1999/xlink" x="0px" y="0px"
	 viewBox="0 0 400 270.7" style="enable-background:new 0 0 400 270.7;" xml:space="preserve">
<style type="text/css">
	.st0{fill:#7A8C69;}
	.st1{fill:#7B8D6B;}
	.st2{fill:#7B8D6A;}
	.st3{fill:#7B8C6A;}
	.st4{fill:#798C69;}
	.st5{fill:#778B67;}
</style>
<g>
	<path class="st0" d="M199.8,125.7c0.4,5.4-2.6,8.8-4,12.6c-2.9,8.4-5.4,16.9-4.6,25.9c1,11.7,7.7,15,17.3,8.5
		c7.7-5.2,13.3-12.5,18.8-19.8c11.1-14.6,22.5-28.9,36.5-40.8c7.2-6.2,15-11.4,24.6-13.4c8-1.7,14.7,1.1,20.1,6.9
		c4.8,5.3,5.8,11.6,3.8,18.4c-0.9,2.8-2.1,6-5.9,3.4c-8.6-5.8-17.6-9.2-28.3-6c-12.9,3.8-22.7,11.7-30.8,22.1
		c-9.4,12.2-18.8,24.4-28.4,36.6c-4.6,5.9-9.9,11.1-16.8,14.3c-9.4,4.3-16.5,1.2-19.4-8.6c-4.8-15.8,0.3-30.4,6.6-44.6
		C191.8,135.8,193.5,129.7,199.8,125.7z"/>
	<path class="st0" d="M380.9,110.4c0.1,14.3-4.3,20.9-17.6,25.8c-8.3,3.1-16.8,5.5-25.7,6.4c-5.6,0.5-10.2-0.9-13.1-6
		c-3.1-5.5-3.4-11.5-1.6-17.4c1-3.3,3.4-2.6,6.2-1.3c14.6,6.6,27.8-0.1,41-4.9c3.5-1.3,2.5-4.8,1.1-7.4c-4.9-8.7-10.4-17-18.2-23.5
		c-2.7-2.2-6-4.4-9.4-3.1c-5.7,2.2-6.6-1.3-7-5.2c-0.7-6.8,0.1-13.3,6.8-17.2c6.8-4,11.4,0.7,15.5,5.1
		C371.7,75.5,380.6,91,380.9,110.4z"/>
	<path class="st1" d="M150,145.7c-3.1,4.5-1.7,11.9-7.8,13.8c-4.4,1.4-13.2-7.8-12-12c1.4-5.1,1.5-13,8.2-12.9
		C143.3,134.6,148.1,139.6,150,145.7z"/>
	<path class="st2" d="M146.7,166.6c2-4.1,1.4-10.7,7.8-12.3c3.7-0.9,12.3,8.5,11.1,12.1c-1.7,4.7-1.1,11.5-7,13.2
		C154.1,181,146.3,172,146.7,166.6z"/>
	<path class="st3" d="M162.5,130.3c6.4,0.4,12.7,10.1,10.1,15.7c-1.6,3.5-0.9,10-6,9.6c-4.7-0.4-10.2-3.4-11.4-9.1
		c-1.2-5.9,1.5-11.1,5.4-15.5C161,130.4,162.1,130.4,162.5,130.3z"/>
	<path class="st4" d="M214.9,95.9c-1.1-5.4-6.6-1.9-9.9-2.8c-2.7-0.8-5.7-0.7-8.5-1.1c-20.2-3.3-39-10.4-57.5-19.2
		c-18.4-8.8-29-4-36.5,14.7c-1,2.5-3.6,5.6-1.6,7.9c1.9,2.3,5.4,0.6,8.1,0.1c22.1-4.6,22.1-4.7,43.4,4.4
		c-17.3,8.4-35.1,13.1-53.7,15.2c-14.2,1.5-24.3-4.6-31.5-16.4c-7-11.4-9.2-24.4-11.8-37.2c-0.9-4.4-0.2-9.6-4.1-13.2
		c-2.2,1.5-2.9,3.6-2.5,5.5c2.6,13.5-5.1,19.5-16,25c-10,5-16.8,13.7-18.4,25.3c-1.2,8.7,1.8,12.2,10.6,12.6
		c12.1,0.6,21.8-3.8,28.9-16.3c1.7,4.2,2.5,6.5,3.5,8.8c9,22.2,22.5,29.3,46.2,24c11.2-2.5,21.9-6.3,32.5-10.8
		c21.1-8.9,42-18.8,66-12.7c0.3,0.1,0.6,0,0.9,0C209.3,109.5,216.2,102.4,214.9,95.9z M31.4,95.3c6.2-5.8,12.4-9.7,16.9-15.7
		C54,93.4,50.2,97.2,31.4,95.3z"/>
	<path class="st4" d="M358.4,19.5c-3-0.5-4.8-2.8-4.3-5.8c0.7-4.7,3.2-8.5,6.4-11.9c1.1-1.2,2.3-1.1,3.4,0.4c2,2.7,3.9,5.5,4,9.1
		c0,1.1,0,2.1,0,3.3c1.3,0,2.4,0.1,3.5-0.8c0.4-0.3,0.8-0.5,1.3-0.3c0.4,0.2,0.2,0.6,0.2,1c0,1,0,0.1-0.1,1.1c-0.5,3.2-2,4-5.5,4.4
		c-0.4,0-0.9-0.1-1.2,0.4c-1.9,3.1-5.1,6.8-7.7,9.2c-4.9,4.4-7.9,5.7-14.2,8.1c-2,0.7-4.9,1.3-7,1.6c-0.5,0.1-1.2,0.4-1.4-0.4
		c-0.1-0.7,0.5-1,1-1.2c0.4-0.2,0.8-0.4,1.3-0.5c7.9-2.6,13.4-5.9,16.8-8.9c3-2.7,4.6-4.7,6.6-7.2c0.2-0.3,0.7-0.6,0.4-1.1
		 M358.8,11.3c1.4,1.3,3.1,2,5,2.6c0.2-2.9-1.5-5-4-4.9"/>
</g>
<g>
	<path class="st5" d="M97.1,255.7H96c-2.2,0-3.9-0.5-5-1.4c-0.7-0.6-1.7-2.1-2.9-4.4c-0.1,0.4-0.3,0.8-0.5,1.4c-0.1,0.4-1,0.7-2.7,1
		c-1.4,0.3-2.5,0.4-3.2,0.4c-1.2,0-1.8-0.4-1.8-1.2c0-0.2,0.1-0.6,0.3-1.2c0.3-1,0.7-1.8,1.4-2.4c0.3-0.3,1.1-0.9,2.3-1.7l3.7-2.6
		c-0.1-1.2,0-1.9,0.2-2.2l0.4-2c0.1-0.5,0.3-0.7,0.7-0.7c0.1,0,0.2,0.1,0.3,0.3c0.1,1.5,0.2,3.6,0.5,6.5c0.1,0.2,0.2,0.6,0.3,1.1
		c0.7,2.5,1.8,4.1,3.3,4.9c0.7,0.4,2.1,0.6,4.1,0.6V255.7z M87.9,248.2c-0.1-0.6-0.2-1.2-0.3-1.9c-0.4,0.1-1.7,0.8-4.1,2.2l0.1,0.4
		l0.3,0.1C85,248.9,86.3,248.6,87.9,248.2z"/>
	<path class="st5" d="M117.1,247.1c0,0.5-0.3,1.1-0.8,1.9c-0.1,0.2-0.8,0.4-1.9,0.6c-1.6,0.3-3.3,0.9-5.2,1.9
		c-0.6,0.3-2.2,1.3-4.7,2.9c-1.2,0.7-2.9,1.1-5.1,1.3c-1,0-2,0.1-3,0V252h2.3c1.5,0,3.1-0.3,4.8-0.9c1.9-0.6,3.3-1.4,4.3-2.3
		c-1.2-0.2-3.1-0.5-5.6-0.7c-0.3,0-0.5-0.1-0.5-0.1c-0.5,0-1.2,0.3-2.1,1c-0.8,0.7-1.2,1-1.1,1c-0.1,0-0.3-0.1-0.5-0.3l-0.3-0.7
		c0-1.7,0.7-3.1,2.2-4.2c0.8-0.6,1.5-0.9,2.3-0.9c0.9,0,3.2,0.3,7.1,1c0.6,0.1,1.4,0.2,2.3,0.3c0.9,0.1,1.7,0.2,2.3,0.2
		c0.4,0,0.8,0,1.4-0.1c0.7-0.1,1.2-0.1,1.4-0.2C117.1,245.8,117.1,246.3,117.1,247.1z M106.1,262l-1.4,3l-3.9-2.2l1.5-2.9L106.1,262
		z M110.4,266.6l-1.5,2.9l-3.8-2.2l1.5-2.9L110.4,266.6z M111.4,262l-1.5,3l-3.8-2.2l1.5-2.9L111.4,262z"/>
	<path class="st5" d="M135.6,251.1c0,1-0.4,2.4-1.3,4.2c-1.5,2-3.3,3.6-5.4,4.8c-2.8,1.6-5.7,2.3-8.8,2.3c-2.5,0-4.3-0.3-5.4-0.8
		c-0.3-0.1-0.5-0.3-0.8-0.5c1.9-0.1,4.1-0.3,6.6-0.7c3-0.6,6.2-2,9.5-4.4c2.4-1.7,3.6-2.9,3.6-3.8c0-0.4-0.3-1.1-0.9-2.2
		c-0.6-1.1-0.9-1.7-0.9-1.9c0-1.1,0.1-1.8,0.4-2.2c0.3-0.4,0.6-0.7,1-0.7c0,0,0,0,0.1,0c1.5,2.2,2.2,3.9,2.2,5.1V251.1z"/>
	<path class="st5" d="M150.4,248.8c0,1-0.1,1.9-0.3,2.7c-0.3,0.9-0.8,1.6-1.5,2.1c-0.3,0.2-1.1,0.5-2.5,1c-2.4,0.8-4.3,1.3-5.5,1.3
		c-1.4,0-2.1-0.7-2.1-2c0-0.6,0.1-1.2,0.3-1.9c0.2-0.9,0.6-1.3,0.9-1.3c0.3,0,0.4,0.2,0.5,0.6c0.1,0.5,0.3,0.9,0.6,1.1
		c0.3,0.1,0.9,0.1,1.6,0.1c1.1,0,3-0.7,5.6-2c0.3-0.2,0.5-0.4,0.5-0.7c-0.5-1.2-1.2-2.1-2.1-2.7c-1.3-0.9-2.1-1.5-2.5-1.9l0-0.3
		c0-0.1,0.2-0.9,0.5-2.3c0.1-0.3,0.2-0.4,0.5-0.5c2.6,1.1,4.3,2.7,5.2,5C150.2,247.6,150.4,248.2,150.4,248.8z"/>
	<path class="st5" d="M180.2,245.3c0,0.3-0.1,0.7-0.3,1.2c-0.2,0.7-0.7,0.7-1.3,0c-0.9-0.6-1.4-0.9-1.7-0.9c-1.5,0-3.2,0.9-5,2.7
		c-1.6,1.5-2.3,2.6-2.3,3.2c0,1.2,1,1.8,3,1.8c4.3,0.1,6.4,0.9,6.4,2.6c0,1.5-0.5,3-1.6,4.5c-1.3,1.9-3.6,3.2-6.9,4
		c-2,0.5-3.6,0.7-4.8,0.7c-1.7,0-3.2-0.6-4.3-1.8c-1.1-1.2-1.7-2.7-1.7-4.4c0-0.7,0.1-1.4,0.2-2.2c0.1-0.8,0.3-1.6,0.6-2.5
		c0.3-0.9,0.8-1.9,1.5-3c0.7-1.1,1.2-1.7,1.6-1.6c0.1,0,0.2,0.1,0.4,0.2c0.1,0.2,0.1,0.4,0.1,0.5c-0.3,0.3-0.8,1.2-1.6,2.6
		c-0.8,1.4-1.2,2.5-1.2,3.2c0,1.6,0.5,2.8,1.4,3.7c1,0.9,2.2,1.3,3.8,1.3c1.4,0,3.3-0.3,5.5-0.9c2.7-0.7,4.1-1.6,4.1-2.5
		c0-0.4-1.1-0.6-3.3-0.6c-3.5,0-5.2-1.2-5.2-3.6c0-2,0.8-4.2,2.5-6.5c1.6-2.2,3.4-3.8,5.2-4.7c0.5-0.2,1.2-0.4,2.1-0.4
		C179.2,242.1,180.2,243.1,180.2,245.3z"/>
	<path class="st5" d="M212.2,255.7h-0.9c-1.4,0-2.4-0.7-3-2.1c-0.3-0.6-0.6-2-0.8-3.9c-0.5-3.2-0.7-5.7-0.7-7.4
		c-0.7,3-2.3,5.7-4.6,8.2c-2.2,2.4-4.8,4.2-7.7,5.4c-0.3,0.1-1.7,0.3-4,0.6c-1.8,0.2-3.7,0.3-5.8,0.3c-0.4,0-0.6-0.2-0.7-0.5
		c0-0.2,0.2-0.4,0.5-0.5c3.7-0.6,7.6-2.2,11.8-5.1c0-1.6-0.4-3.4-1.3-5.3c-0.8-1.9-1.8-3.5-3-4.6c-0.6,0.3-1.1,0.5-1.7,0.5
		c-0.7,0-1.6-0.2-2.7-0.7c-1.1-0.5-1.8-1.1-2-1.7c0-0.1,0-0.3,0-0.6c0-0.7,0.1-1.6,0.2-2.7c0.2-1.2,0.3-1.9,0.4-2
		c0.3-0.9,0.7-1.4,1.2-1.4c0.1,0,0.3,0,0.4,0.1c1.9,1.1,4,3.4,6.3,6.8c0.4,0.6,1,1.7,1.8,3.3c1.2,2.3,1.8,4.8,1.8,7.4
		c0.4-0.2,1.2-0.8,2.3-1.8c2-1.8,3.5-3.6,4.4-5.6c1.1-2.3,1.7-4,1.7-5.2v-1.5l0-1.5c0-1.9,0.1-2.9,0.3-2.9c0.2,0,0.4,0.2,0.6,0.5
		c0.2,0.3,0.3,0.5,0.4,0.7c0,0.2,0,0.5,0.1,1.1c0,1,0.1,2.9,0.4,5.8l0.5,3.3c0.1,0.5,0.4,2.5,0.9,6.3c0.3,2.2,1,3.2,2.2,3.2h0.8
		V255.7z"/>
	<path class="st5" d="M234.5,248.4c0,0.3-0.2,0.8-0.5,1.4c-0.5,1.1-0.9,1.9-1.3,2.3c-0.5,0.6-1.2,1.1-2.2,1.6
		c-0.8,0.4-1.4,0.7-1.8,0.9c-1.3,0.5-2.3,0.9-3.1,1c-0.1,0-1.1,0-3,0.1c-0.2,0-0.6,0-1.1,0.1c-0.5,0-0.8,0-1.1,0
		c-1,0-2.4-0.1-4.3-0.2c-1.5,2-2.6,3.8-3.4,5.6l-0.1,0c-0.1-0.1-0.3-0.2-0.5-0.5c0.3-0.9,1-2.6,2.3-5.1h-3V252c0.5,0,1.2,0,2.2,0
		c1,0,1.7,0,2.2,0c0.3,0,0.6,0,0.7-0.1c0.2-0.2,0.6-0.5,1.1-1.1v-2.3c0-1-0.2-2.6-0.7-4.7c-0.4-1.6-0.7-3.2-1.1-4.7
		c-0.2-0.8-0.2-1.4-0.2-1.7c-0.3-0.4-0.6-0.7-0.9-1.1c-0.2-0.3-0.2-0.8-0.2-1.5c0-1.4,0.2-2.7,0.5-3.8c0.1-0.2,0.3-0.6,0.5-1.2
		c0.1-0.3,0.3-0.5,0.4-0.7c0.1,0,0.2-0.1,0.3-0.1c0.1,0,0.2,0,0.3,0.1l0.2,0.3c-0.1,0.7-0.2,1.8-0.4,3.5c0,0.4,0.5,0.7,1.5,0.9
		c0.1,0,0.5,0.1,1.1,0.2c0.3,0.1,0.4,0.4,0.4,0.9c0,0.2-0.2,0.7-0.5,1.5s-0.5,1.3-0.7,1.5s-0.3,0.3-0.4,0.3c0,0.4,0.4,2,1.1,4.8
		c0.3,1.2,0.5,2.9,0.5,5c0,0.7,0,1.2-0.1,1.3c0.1-0.1,1.3-1.1,3.6-3c2.6-2.1,4.3-3.2,5.1-3.2c1.4,0,2.8,0.5,4.2,1.5
		C233.7,245.8,234.5,247,234.5,248.4z M231.8,249.4c0-0.1-0.3-0.3-0.9-0.7c-1.5-1.1-3-1.7-4.4-1.7c-0.5,0-1.9,0.7-3.9,2.2
		c-2,1.4-3.2,2.4-3.7,3h3.5c0.3,0,0.6-0.1,1-0.1c0.2,0,0.7,0,1.3,0c1.2-0.1,2.5-0.3,3.9-0.7C230.7,250.8,231.8,250.1,231.8,249.4z"
		/>
	<path class="st5" d="M264.2,245.3c0,0.3-0.1,0.7-0.3,1.2c-0.2,0.7-0.7,0.7-1.3,0c-0.9-0.6-1.4-0.9-1.7-0.9c-1.5,0-3.2,0.9-5,2.7
		c-1.6,1.5-2.3,2.6-2.3,3.2c0,1.2,1,1.8,3,1.8c4.3,0.1,6.4,0.9,6.4,2.6c0,1.5-0.5,3-1.6,4.5c-1.3,1.9-3.6,3.2-6.9,4
		c-2,0.5-3.6,0.7-4.8,0.7c-1.7,0-3.2-0.6-4.3-1.8c-1.1-1.2-1.7-2.7-1.7-4.4c0-0.7,0.1-1.4,0.2-2.2c0.1-0.8,0.3-1.6,0.6-2.5
		c0.3-0.9,0.8-1.9,1.5-3c0.7-1.1,1.2-1.7,1.6-1.6c0.1,0,0.2,0.1,0.4,0.2c0.1,0.2,0.1,0.4,0.1,0.5c-0.3,0.3-0.8,1.2-1.6,2.6
		c-0.8,1.4-1.2,2.5-1.2,3.2c0,1.6,0.5,2.8,1.4,3.7c1,0.9,2.2,1.3,3.8,1.3c1.4,0,3.3-0.3,5.5-0.9c2.7-0.7,4.1-1.6,4.1-2.5
		c0-0.4-1.1-0.6-3.3-0.6c-3.5,0-5.2-1.2-5.2-3.6c0-2,0.8-4.2,2.5-6.5c1.6-2.2,3.4-3.8,5.2-4.7c0.5-0.2,1.2-0.4,2.1-0.4
		C263.3,242.1,264.2,243.1,264.2,245.3z"/>
	<path class="st5" d="M289.4,255.7c-1.8,0-3.7,0.4-5.7,1.3c-2.6,1.1-4.8,2.2-6.5,3.6c-1,0.8-3,2.3-5.9,4.5c-0.9,0.7-1.7,1.1-2.5,1.1
		s-1.4-0.3-2-0.9c-0.6-0.6-0.9-1.2-0.9-2c0-2.4,1.5-5,4.4-7.8c0.8-0.8,1.5-1.4,2.1-2c0.1,0,0.2-0.1,0.2-0.1c0.2,0,0.3,0.1,0.3,0.4
		c-0.1,0.1-0.1,0.3-0.2,0.3c-3.3,3.3-4.9,5.6-4.9,7c0,1.1,0.7,1.7,2,1.7c0.7,0,1.5-0.4,2.6-1.3c0.4-0.3,1.1-0.9,2.1-1.8
		c0.2-0.1,1.2-0.9,3.1-2.3c1.5-1.1,3.3-2.2,5.4-3.3c2.6-1.3,4.5-2,5.8-2h0.6V255.7z"/>
	<path class="st5" d="M294.8,237l0,0.2c-0.2,0.9-0.4,1.5-0.5,1.8c-0.3,0.7-0.6,1.2-1,1.5c0.6,3.4,1,6.3,1.2,8.8v1.1
		c0,0.3,0.1,1.1,0.1,2.2c0,0.5-0.4,1.3-1.2,2.4c-0.7,0.5-1.9,0.8-3.7,0.8h-0.7V252c2.1,0,3.3-0.1,3.5-0.4c0-1.2,0-2.1-0.1-2.9
		c0-0.2-0.1-0.7-0.2-1.5c-0.2-1.7-0.5-4.2-0.8-7.5l-1.4-1.4c-0.1-0.2-0.1-0.6-0.1-1c0-1.5,0.1-2.8,0.4-3.8c0-0.2,0.4-1,1.2-2.3
		l0.1-0.1c0,0,0.1,0,0.2,0c0.3,0,0.4,0.1,0.4,0.3c-0.2,1.5-0.4,2.5-0.4,2.8c0,0.2,0,0.4,0,0.7c0,0.4,0.5,0.7,1.5,0.9
		c0.3,0,0.7,0.1,1.2,0.4C294.8,236.5,294.9,236.8,294.8,237z"/>
	<path class="st5" d="M305.5,255.7h-1.9c-2,0-3.3-2-4-6.1c-0.2-1.5-0.4-4.4-0.5-8.6c0-1.6-0.1-3.3-0.1-5c0-0.4-0.1-1-0.2-1.7
		c-0.1-0.8-0.2-1.4-0.2-1.8c0-2.1,0.3-3.1,0.9-3.1c0.4,0,0.6,0.2,0.6,0.5l0.2,1.7c0.3,2.2,0.5,4.5,0.5,6.8l0.1,5.2
		c0.1,4.5,0.9,7.2,2.3,8.1c0.3,0.2,1,0.3,2.2,0.3V255.7z"/>
	<path class="st5" d="M324.6,226c0,1-0.3,1.8-0.8,2.4c-2.2,0.9-5.4,2.3-9.8,4.1c-1.7,0.7-3.6,1.5-5.6,2.4l-0.2,0.3l0.1,0.2
		c2.4,2.1,4.5,4,6.3,5.7c0.8,0.8,1.6,1.9,2.4,3.3c0.8,1.6,1.3,2.8,1.3,3.8c0,2.2-0.4,3.8-1.3,4.9c-0.4,0.5-2.1,1.1-5,1.7
		c-2.6,0.5-4.5,0.8-5.7,0.8H305V252c2.9,0.1,5.6-0.2,8.2-0.9l2.1-0.5c0.6-0.2,1-0.5,1-0.9c0-1.1-0.7-2.5-2.1-4.3
		c-0.6-0.8-2.1-2.2-4.5-4.2c-0.4-0.3-1.1-0.9-2.1-1.8c-0.9-0.7-1.3-1.5-1.3-2.3c0-2,0.8-3.7,2.3-5.3c4.9-2.3,10.2-4.5,16-6.8
		C324.6,225.1,324.6,225.5,324.6,226z M323.8,221.3c0,0.5-0.3,1.2-0.8,2c-3.3,1.3-8.3,3.4-14.9,6.3c-0.1,0-0.2-0.2-0.2-0.5
		c0-1.1,0.3-1.7,0.8-2l3.8-1.7c0.8-0.4,3.2-1.4,7-3c1-0.4,2.4-1,4.1-1.6C323.7,220.7,323.8,220.9,323.8,221.3z"/>
</g>
</svg>
